<mxfile host="65bd71144e">
    <diagram id="oST1ziDif6kEccXKR9cC" name="第 1 页">
        <mxGraphModel dx="1689" dy="1202" grid="1" gridSize="10" guides="1" tooltips="1" connect="1" arrows="1" fold="1" page="1" pageScale="1" pageWidth="1169" pageHeight="827" background="none" math="0" shadow="0">
            <root>
                <mxCell id="0"/>
                <mxCell id="1" parent="0"/>
                <mxCell id="11" value="" style="rounded=0;whiteSpace=wrap;html=1;labelBackgroundColor=none;fontFamily=Helvetica;fontSize=12;" parent="1" vertex="1">
                    <mxGeometry x="55" y="160" width="470" height="610" as="geometry"/>
                </mxCell>
                <mxCell id="2" value="string Name = &quot;老王&quot;" style="rounded=1;whiteSpace=wrap;html=1;fillColor=#0050ef;fontColor=#ffffff;strokeColor=#001DBC;" parent="1" vertex="1">
                    <mxGeometry x="75" y="200" width="170" height="60" as="geometry"/>
                </mxCell>
                <mxCell id="9" value="&lt;div style=&quot;font-family: &amp;quot;Fira Code&amp;quot;, Consolas, &amp;quot;Courier New&amp;quot;, monospace; font-weight: normal; font-size: 14px; line-height: 19px;&quot;&gt;&lt;div style=&quot;line-height: 19px;&quot;&gt;&lt;div&gt;&lt;span style=&quot;&quot;&gt;&amp;nbsp; &amp;nbsp; &lt;/span&gt;&lt;span style=&quot;&quot;&gt;void&lt;/span&gt;&lt;span style=&quot;&quot;&gt; &lt;/span&gt;&lt;span style=&quot;&quot;&gt;take_gun&lt;/span&gt;&lt;span style=&quot;&quot;&gt;(&lt;/span&gt;&lt;span style=&quot;&quot;&gt;class&lt;/span&gt;&lt;span style=&quot;&quot;&gt; &lt;/span&gt;&lt;span style=&quot;&quot;&gt;Gun&lt;/span&gt;&lt;span style=&quot;&quot;&gt; &lt;/span&gt;&lt;span style=&quot;&quot;&gt;*&lt;/span&gt;&lt;span style=&quot;font-style: italic;&quot;&gt;gun&lt;/span&gt;&lt;span style=&quot;&quot;&gt;)&lt;/span&gt;&lt;span style=&quot;font-style: italic;&quot;&gt; //用来接收枪的地址,类型是枪类型的指针Gun*&lt;/span&gt;&lt;/div&gt;&lt;div&gt;&lt;span style=&quot;&quot;&gt;&amp;nbsp; &amp;nbsp; &lt;/span&gt;&lt;span style=&quot;&quot;&gt;{&lt;/span&gt;&lt;/div&gt;&lt;div&gt;&lt;span style=&quot;&quot;&gt;&amp;nbsp; &amp;nbsp; &amp;nbsp; &amp;nbsp; &lt;/span&gt;&lt;span style=&quot;&quot;&gt;this-&amp;gt;&lt;/span&gt;Gun&lt;span style=&quot;&quot;&gt; &lt;/span&gt;&lt;span style=&quot;&quot;&gt;=&lt;/span&gt;&lt;span style=&quot;&quot;&gt; &lt;/span&gt;&lt;span style=&quot;font-style: italic;&quot;&gt;gun&lt;/span&gt;&lt;span style=&quot;&quot;&gt;;&lt;/span&gt;&lt;span style=&quot;font-style: italic;&quot;&gt; // 把枪的地址赋值给老王&lt;/span&gt;&lt;/div&gt;&lt;div&gt;&lt;span style=&quot;&quot;&gt;&amp;nbsp; &amp;nbsp; &amp;nbsp; &amp;nbsp; &lt;/span&gt;cout&lt;span style=&quot;&quot;&gt;&amp;lt;&amp;lt;&lt;/span&gt;&lt;span style=&quot;&quot;&gt;this-&amp;gt;&lt;/span&gt;Name&lt;span style=&quot;&quot;&gt;&amp;lt;&amp;lt;&lt;/span&gt;&lt;span style=&quot;&quot;&gt;&quot;&lt;/span&gt;&lt;span style=&quot;&quot;&gt;拿起了&lt;/span&gt;&lt;span style=&quot;&quot;&gt;&quot;&lt;/span&gt;&lt;span style=&quot;&quot;&gt;&amp;lt;&amp;lt;&lt;/span&gt;&lt;span style=&quot;font-style: italic;&quot;&gt;gun&lt;/span&gt;&lt;span style=&quot;&quot;&gt;-&amp;gt;&lt;/span&gt;Name&lt;span style=&quot;&quot;&gt;&amp;lt;&amp;lt;&lt;/span&gt;&lt;span style=&quot;&quot;&gt;endl&lt;/span&gt;&lt;span style=&quot;&quot;&gt;;&lt;/span&gt;&lt;span style=&quot;font-style: italic;&quot;&gt;//打印老王拿起了什么枪&lt;/span&gt;&lt;/div&gt;&lt;div&gt;&lt;span style=&quot;&quot;&gt;&amp;nbsp; &amp;nbsp; &lt;/span&gt;&lt;span style=&quot;&quot;&gt;}&lt;/span&gt;&lt;/div&gt;&lt;/div&gt;&lt;/div&gt;" style="text;whiteSpace=wrap;html=1;fillColor=#d80073;rounded=0;labelBackgroundColor=none;fontColor=#ffffff;strokeColor=#A50040;" parent="1" vertex="1">
                    <mxGeometry x="75" y="430" width="420" height="140" as="geometry"/>
                </mxCell>
                <mxCell id="12" value="class Gun *Gun;" style="rounded=1;whiteSpace=wrap;html=1;fillColor=#d80073;fontColor=#ffffff;strokeColor=#A50040;" vertex="1" parent="1">
                    <mxGeometry x="75" y="280" width="170" height="60" as="geometry"/>
                </mxCell>
                <mxCell id="13" value="&lt;div style=&quot;font-family: &amp;quot;Fira Code&amp;quot;, Consolas, &amp;quot;Courier New&amp;quot;, monospace; font-weight: normal; font-size: 14px; line-height: 19px;&quot;&gt;&lt;div&gt;&lt;span style=&quot;font-style: italic;&quot;&gt;&amp;nbsp; &amp;nbsp; // 显示打印输出人类信息&lt;/span&gt;&lt;/div&gt;&lt;div&gt;&lt;span style=&quot;&quot;&gt;&amp;nbsp; &amp;nbsp; &lt;/span&gt;&lt;span style=&quot;&quot;&gt;void&lt;/span&gt;&lt;span style=&quot;&quot;&gt; &lt;/span&gt;&lt;span style=&quot;&quot;&gt;display_info&lt;/span&gt;&lt;span style=&quot;&quot;&gt;()&lt;/span&gt;&lt;/div&gt;&lt;div&gt;&lt;span style=&quot;&quot;&gt;&amp;nbsp; &amp;nbsp; &lt;/span&gt;&lt;span style=&quot;&quot;&gt;{&lt;/span&gt;&lt;/div&gt;&lt;div&gt;&lt;span style=&quot;&quot;&gt;&amp;nbsp; &amp;nbsp; &amp;nbsp; &amp;nbsp; &lt;/span&gt;&lt;span style=&quot;&quot;&gt;cout&lt;/span&gt;&lt;span style=&quot;&quot;&gt; &lt;/span&gt;&lt;span style=&quot;&quot;&gt;&amp;lt;&amp;lt;&lt;/span&gt;&lt;span style=&quot;&quot;&gt; &lt;/span&gt;&lt;span style=&quot;&quot;&gt;&quot;&lt;/span&gt;&lt;span style=&quot;&quot;&gt;姓名:&lt;/span&gt;&lt;span style=&quot;&quot;&gt;&quot;&lt;/span&gt;&lt;span style=&quot;&quot;&gt; &lt;/span&gt;&lt;span style=&quot;&quot;&gt;&amp;lt;&amp;lt;&lt;/span&gt;&lt;span style=&quot;&quot;&gt; &lt;/span&gt;&lt;span style=&quot;&quot;&gt;this-&amp;gt;&lt;/span&gt;&lt;span style=&quot;&quot;&gt;Name&lt;/span&gt;&lt;span style=&quot;&quot;&gt; &lt;/span&gt;&lt;span style=&quot;&quot;&gt;&amp;lt;&amp;lt;&lt;/span&gt;&lt;span style=&quot;&quot;&gt; &lt;/span&gt;&lt;span style=&quot;&quot;&gt;endl&lt;/span&gt;&lt;span style=&quot;&quot;&gt;;&lt;/span&gt;&lt;/div&gt;&lt;div&gt;&lt;span style=&quot;&quot;&gt;&amp;nbsp; &amp;nbsp; &lt;/span&gt;&lt;span style=&quot;&quot;&gt;}&lt;/span&gt;&lt;/div&gt;&lt;/div&gt;" style="text;whiteSpace=wrap;html=1;fillColor=#0050ef;rounded=0;labelBackgroundColor=none;fontColor=#ffffff;strokeColor=#001DBC;" vertex="1" parent="1">
                    <mxGeometry x="75" y="590" width="420" height="120" as="geometry"/>
                </mxCell>
                <mxCell id="15" value="" style="rounded=0;whiteSpace=wrap;html=1;labelBackgroundColor=none;fontFamily=Helvetica;fontSize=12;" vertex="1" parent="1">
                    <mxGeometry x="645" y="160" width="470" height="610" as="geometry"/>
                </mxCell>
                <mxCell id="16" value="string Name = &quot;AK47&quot;" style="rounded=1;whiteSpace=wrap;html=1;fillColor=#0050ef;fontColor=#ffffff;strokeColor=#001DBC;" vertex="1" parent="1">
                    <mxGeometry x="665" y="200" width="170" height="60" as="geometry"/>
                </mxCell>
                <mxCell id="17" value="&lt;div style=&quot;font-family: &amp;quot;Fira Code&amp;quot;, Consolas, &amp;quot;Courier New&amp;quot;, monospace; font-weight: normal; font-size: 14px; line-height: 19px;&quot;&gt;&lt;div style=&quot;line-height: 19px;&quot;&gt;&lt;div&gt;&lt;span style=&quot;&quot;&gt;&amp;nbsp; &amp;nbsp; &lt;/span&gt;&lt;span style=&quot;&quot;&gt;void&lt;/span&gt;&lt;span style=&quot;&quot;&gt; &lt;/span&gt;&lt;span style=&quot;&quot;&gt;take_gun&lt;/span&gt;&lt;span style=&quot;&quot;&gt;(&lt;/span&gt;&lt;span style=&quot;&quot;&gt;class&lt;/span&gt;&lt;span style=&quot;&quot;&gt; &lt;/span&gt;&lt;span style=&quot;&quot;&gt;Gun&lt;/span&gt;&lt;span style=&quot;&quot;&gt; &lt;/span&gt;&lt;span style=&quot;&quot;&gt;*&lt;/span&gt;&lt;span style=&quot;font-style: italic;&quot;&gt;gun&lt;/span&gt;&lt;span style=&quot;&quot;&gt;)&lt;/span&gt;&lt;span style=&quot;font-style: italic;&quot;&gt; //用来接收枪的地址,类型是枪类型的指针Gun*&lt;/span&gt;&lt;/div&gt;&lt;div&gt;&lt;span style=&quot;&quot;&gt;&amp;nbsp; &amp;nbsp; &lt;/span&gt;&lt;span style=&quot;&quot;&gt;{&lt;/span&gt;&lt;/div&gt;&lt;div&gt;&lt;span style=&quot;&quot;&gt;&amp;nbsp; &amp;nbsp; &amp;nbsp; &amp;nbsp; &lt;/span&gt;&lt;span style=&quot;&quot;&gt;this-&amp;gt;&lt;/span&gt;Gun&lt;span style=&quot;&quot;&gt; &lt;/span&gt;&lt;span style=&quot;&quot;&gt;=&lt;/span&gt;&lt;span style=&quot;&quot;&gt; &lt;/span&gt;&lt;span style=&quot;font-style: italic;&quot;&gt;gun&lt;/span&gt;&lt;span style=&quot;&quot;&gt;;&lt;/span&gt;&lt;span style=&quot;font-style: italic;&quot;&gt; // 把枪的地址赋值给老王&lt;/span&gt;&lt;/div&gt;&lt;div&gt;&lt;span style=&quot;&quot;&gt;&amp;nbsp; &amp;nbsp; &amp;nbsp; &amp;nbsp; &lt;/span&gt;cout&lt;span style=&quot;&quot;&gt;&amp;lt;&amp;lt;&lt;/span&gt;&lt;span style=&quot;&quot;&gt;this-&amp;gt;&lt;/span&gt;Name&lt;span style=&quot;&quot;&gt;&amp;lt;&amp;lt;&lt;/span&gt;&lt;span style=&quot;&quot;&gt;&quot;&lt;/span&gt;&lt;span style=&quot;&quot;&gt;拿起了&lt;/span&gt;&lt;span style=&quot;&quot;&gt;&quot;&lt;/span&gt;&lt;span style=&quot;&quot;&gt;&amp;lt;&amp;lt;&lt;/span&gt;&lt;span style=&quot;font-style: italic;&quot;&gt;gun&lt;/span&gt;&lt;span style=&quot;&quot;&gt;-&amp;gt;&lt;/span&gt;Name&lt;span style=&quot;&quot;&gt;&amp;lt;&amp;lt;&lt;/span&gt;&lt;span style=&quot;&quot;&gt;endl&lt;/span&gt;&lt;span style=&quot;&quot;&gt;;&lt;/span&gt;&lt;span style=&quot;font-style: italic;&quot;&gt;//打印老王拿起了什么枪&lt;/span&gt;&lt;/div&gt;&lt;div&gt;&lt;span style=&quot;&quot;&gt;&amp;nbsp; &amp;nbsp; &lt;/span&gt;&lt;span style=&quot;&quot;&gt;}&lt;/span&gt;&lt;/div&gt;&lt;/div&gt;&lt;/div&gt;" style="text;whiteSpace=wrap;html=1;fillColor=#d80073;rounded=0;labelBackgroundColor=none;fontColor=#ffffff;strokeColor=#A50040;" vertex="1" parent="1">
                    <mxGeometry x="665" y="430" width="420" height="140" as="geometry"/>
                </mxCell>
                <mxCell id="18" value="class Gun *Gun;" style="rounded=1;whiteSpace=wrap;html=1;fillColor=#d80073;fontColor=#ffffff;strokeColor=#A50040;" vertex="1" parent="1">
                    <mxGeometry x="665" y="280" width="170" height="60" as="geometry"/>
                </mxCell>
                <mxCell id="19" value="&lt;div style=&quot;font-family: &amp;quot;Fira Code&amp;quot;, Consolas, &amp;quot;Courier New&amp;quot;, monospace; font-weight: normal; font-size: 14px; line-height: 19px;&quot;&gt;&lt;div&gt;&lt;span style=&quot;font-style: italic;&quot;&gt;&amp;nbsp; &amp;nbsp; // 显示打印输出人类信息&lt;/span&gt;&lt;/div&gt;&lt;div&gt;&lt;span style=&quot;&quot;&gt;&amp;nbsp; &amp;nbsp; &lt;/span&gt;&lt;span style=&quot;&quot;&gt;void&lt;/span&gt;&lt;span style=&quot;&quot;&gt; &lt;/span&gt;&lt;span style=&quot;&quot;&gt;display_info&lt;/span&gt;&lt;span style=&quot;&quot;&gt;()&lt;/span&gt;&lt;/div&gt;&lt;div&gt;&lt;span style=&quot;&quot;&gt;&amp;nbsp; &amp;nbsp; &lt;/span&gt;&lt;span style=&quot;&quot;&gt;{&lt;/span&gt;&lt;/div&gt;&lt;div&gt;&lt;span style=&quot;&quot;&gt;&amp;nbsp; &amp;nbsp; &amp;nbsp; &amp;nbsp; &lt;/span&gt;&lt;span style=&quot;&quot;&gt;cout&lt;/span&gt;&lt;span style=&quot;&quot;&gt; &lt;/span&gt;&lt;span style=&quot;&quot;&gt;&amp;lt;&amp;lt;&lt;/span&gt;&lt;span style=&quot;&quot;&gt; &lt;/span&gt;&lt;span style=&quot;&quot;&gt;&quot;&lt;/span&gt;&lt;span style=&quot;&quot;&gt;姓名:&lt;/span&gt;&lt;span style=&quot;&quot;&gt;&quot;&lt;/span&gt;&lt;span style=&quot;&quot;&gt; &lt;/span&gt;&lt;span style=&quot;&quot;&gt;&amp;lt;&amp;lt;&lt;/span&gt;&lt;span style=&quot;&quot;&gt; &lt;/span&gt;&lt;span style=&quot;&quot;&gt;this-&amp;gt;&lt;/span&gt;&lt;span style=&quot;&quot;&gt;Name&lt;/span&gt;&lt;span style=&quot;&quot;&gt; &lt;/span&gt;&lt;span style=&quot;&quot;&gt;&amp;lt;&amp;lt;&lt;/span&gt;&lt;span style=&quot;&quot;&gt; &lt;/span&gt;&lt;span style=&quot;&quot;&gt;endl&lt;/span&gt;&lt;span style=&quot;&quot;&gt;;&lt;/span&gt;&lt;/div&gt;&lt;div&gt;&lt;span style=&quot;&quot;&gt;&amp;nbsp; &amp;nbsp; &lt;/span&gt;&lt;span style=&quot;&quot;&gt;}&lt;/span&gt;&lt;/div&gt;&lt;/div&gt;" style="text;whiteSpace=wrap;html=1;fillColor=#0050ef;rounded=0;labelBackgroundColor=none;fontColor=#ffffff;strokeColor=#001DBC;" vertex="1" parent="1">
                    <mxGeometry x="665" y="590" width="420" height="120" as="geometry"/>
                </mxCell>
            </root>
        </mxGraphModel>
    </diagram>
</mxfile>